REM MD5 65b7307adc58ed27dda370914cbe88fa
FILE "SuperLite 1500 Series - Hanafuda II (Japan).bin" BINARY
  TRACK 01 MODE2/2352
    INDEX 01 00:00:00
  TRACK 02 AUDIO
    INDEX 00 00:11:45
    INDEX 01 00:13:45
  TRACK 03 AUDIO
    INDEX 00 03:23:51
    INDEX 01 03:25:51
  TRACK 04 AUDIO
    INDEX 00 07:51:49
    INDEX 01 07:53:49
  TRACK 05 AUDIO
    INDEX 00 10:42:47
    INDEX 01 10:44:47
REM LEADOUT 16:09:57
